<?xml version="1.0" encoding="UTF-8" standalone="no"?>
<svg xmlns="http://www.w3.org/2000/svg" version="1.1" xmlns:xlink="http://www.w3.org/1999/xlink" xmlns:svgjs="http://svgjs.dev/svgjs" width="501.28000793457034" height="75.36453529202126" viewBox="0 0 2000 166">
  <g transform="matrix(1,0,0,1,-1.2121170993847272,0.4944688695234021)">
    <svg viewBox="0 0 396 33" data-background-color="#ffffff" preserveAspectRatio="xMidYMid meet" height="166" width="2000" xmlns="http://www.w3.org/2000/svg" xmlns:xlink="http://www.w3.org/1999/xlink">
      <g id="tight-bounds" transform="matrix(1,0,0,1,0.23999918567818668,-0.098298028278748)">
        <svg viewBox="0 0 395.52 33.19659734667184" height="33.19659734667184" width="395.52">
          <g>
            <svg viewBox="0 0 451.98975180028276 37.93618981426004" height="33.19659734667184" width="395.52">
              <g transform="matrix(1,0,0,1,56.46975180028281,5.242990053924508)">
                <svg viewBox="0 0 395.52 27.450209706411023" height="27.450209706411023" width="395.52">
                  <g id="textblocktransform">
                    <svg viewBox="0 0 395.52 27.450209706411023" height="27.450209706411023" width="395.52" id="textblock">
                      <g>
                        <svg viewBox="0 0 395.52 27.450209706411023" height="27.450209706411023" width="395.52">
                          <g transform="matrix(1,0,0,1,0,0)">
                            <svg width="395.52" viewBox="2.4000000953674316 -34.349998474121094 498.55999755859375 34.75" height="27.450209706411023" data-palette-color="#000000">
                              <g class="wordmark-text-0" data-fill-palette-color="primary" id="text-0">
                                <path d="M30.1-2.8L30.15-2.65Q26.1 0.4 19.7 0.4L19.7 0.4Q11.9 0.4 7.15-4.23 2.4-8.85 2.4-16.9L2.4-16.9Q2.4-24.55 7.13-29.43 11.85-34.3 19.05-34.3L19.05-34.3Q25-34.3 28.9-32L28.9-32 28.9-27.65Q24.8-30.35 19.4-30.35L19.4-30.35Q13.75-30.35 10.2-26.68 6.65-23 6.65-16.9L6.65-16.9Q6.65-10.65 10.15-7.08 13.65-3.5 19.8-3.5L19.8-3.5Q23.2-3.5 26.1-4.85L26.1-4.85 26.1-15.35 18.7-15.35 18.7-18.9 30.15-18.9 30.15-2.8 30.1-2.8ZM44.4-14.2L44.4-14.2 43.75-12.3 55.7-12.3 55.05-14.25 49.8-30.45Q49.2-28.3 44.4-14.2ZM42.6-8.85L39.6 0 35.25 0 47-33.7 52.6-33.7 64.15 0 59.8 0 56.85-8.85 42.6-8.85ZM88.15-3.65L88.15 0 69.75 0 69.75-33.7 73.8-33.7 73.8-3.65 88.15-3.65ZM100.64-14.2L100.64-14.2 99.99-12.3 111.94-12.3 111.29-14.25 106.04-30.45Q105.44-28.3 100.64-14.2ZM98.84-8.85L95.84 0 91.49 0 103.24-33.7 108.84-33.7 120.39 0 116.04 0 113.09-8.85 98.84-8.85ZM150.14-5.95L150.14-1.7Q147.04 0.4 141.64 0.4L141.64 0.4Q134.04 0.4 129.29-4.28 124.54-8.95 124.54-17L124.54-17Q124.54-24.6 129.37-29.38 134.19-34.15 141.49-34.15L141.49-34.15Q146.74-34.15 150.04-32.35L150.04-32.35 150.04-28.2Q147.84-29.35 146.09-29.85 144.34-30.35 141.49-30.35L141.49-30.35Q136.04-30.35 132.42-26.65 128.79-22.95 128.79-17L128.79-17Q128.79-10.8 132.39-7.1 135.99-3.4 141.94-3.4L141.94-3.4Q146.74-3.4 150.14-5.95L150.14-5.95ZM175.39-33.7L175.39-30.15 166.29-30.15 166.29 0 162.24 0 162.24-30.15 153.14-30.15 153.14-33.7 175.39-33.7ZM184.53-33.7L184.53 0 180.49 0 180.49-33.7 184.53-33.7ZM216.68-5.95L216.68-1.7Q213.58 0.4 208.18 0.4L208.18 0.4Q200.58 0.4 195.83-4.28 191.08-8.95 191.08-17L191.08-17Q191.08-24.6 195.91-29.38 200.73-34.15 208.03-34.15L208.03-34.15Q213.28-34.15 216.58-32.35L216.58-32.35 216.58-28.2Q214.38-29.35 212.63-29.85 210.88-30.35 208.03-30.35L208.03-30.35Q202.58-30.35 198.96-26.65 195.33-22.95 195.33-17L195.33-17Q195.33-10.8 198.93-7.1 202.53-3.4 208.48-3.4L208.48-3.4Q213.28-3.4 216.68-5.95L216.68-5.95Z" fill="#000000" data-fill-palette-color="primary"/>
                                <path d="M255.98-5.95L255.98-1.7Q252.88 0.4 247.48 0.4L247.48 0.4Q239.88 0.4 235.13-4.28 230.38-8.95 230.38-17L230.38-17Q230.38-24.6 235.2-29.38 240.03-34.15 247.33-34.15L247.33-34.15Q252.58-34.15 255.88-32.35L255.88-32.35 255.88-28.2Q253.68-29.35 251.93-29.85 250.18-30.35 247.33-30.35L247.33-30.35Q241.88-30.35 238.25-26.65 234.63-22.95 234.63-17L234.63-17Q234.63-10.8 238.23-7.1 241.83-3.4 247.78-3.4L247.78-3.4Q252.58-3.4 255.98-5.95L255.98-5.95ZM286.38-33.7L286.38 0 282.33 0 282.33-15.25 265.98-15.25 265.98 0 261.93 0 261.93-33.7 265.98-33.7 265.98-18.9 282.33-18.9 282.33-33.7 286.38-33.7ZM302.77-30.2L302.77-30.2 298.12-30.2 298.12-16.75 303.22-16.75Q306.67-16.75 308.5-18.63 310.32-20.5 310.32-23.45L310.32-23.45Q310.32-30.2 302.77-30.2ZM303.37-13.3L302.97-13.3 298.12-13.3 298.12 0 294.07 0 294.07-33.7 302.52-33.7Q308.37-33.7 311.4-30.95 314.42-28.2 314.42-23.35L314.42-23.35Q314.32-19.85 312.57-17.4 310.82-14.95 307.62-13.95L307.62-13.95 316.47 0 311.62 0 303.37-13.3ZM350.27-17L350.27-17Q350.27-9.05 346.2-4.33 342.12 0.4 335.17 0.4L335.17 0.4Q328.32 0.4 324.17-4.35 320.02-9.1 320.02-17L320.02-17Q320.02-24.95 324.1-29.65 328.17-34.35 335.12-34.35L335.12-34.35Q342.22-34.35 346.24-29.68 350.27-25 350.27-17ZM324.27-17L324.27-17Q324.27-10.75 327.25-7.1 330.22-3.45 335.17-3.45L335.17-3.45Q340.32-3.45 343.15-7.05 345.97-10.65 345.97-17 345.97-23.35 343.12-26.95 340.27-30.55 335.12-30.55L335.12-30.55Q330.02-30.55 327.15-26.93 324.27-23.3 324.27-17ZM360.52-14.2L360.52 0 356.47 0 356.47-33.7 361.57-33.7 370.02-19.5 378.57-4.9Q378.37-9.75 378.37-19.45L378.37-19.45 378.37-33.7 382.42-33.7 382.42 0 377.32 0 368.87-14.1Q366.32-18.35 364.17-22.03 362.02-25.7 361.12-27.3L361.12-27.3 360.27-28.85Q360.52-23.65 360.52-14.2L360.52-14.2ZM394.46-33.7L394.46 0 390.42 0 390.42-33.7 394.46-33.7ZM426.61-5.95L426.61-1.7Q423.51 0.4 418.11 0.4L418.11 0.4Q410.51 0.4 405.76-4.28 401.01-8.95 401.01-17L401.01-17Q401.01-24.6 405.84-29.38 410.66-34.15 417.96-34.15L417.96-34.15Q423.21-34.15 426.51-32.35L426.51-32.35 426.51-28.2Q424.31-29.35 422.56-29.85 420.81-30.35 417.96-30.35L417.96-30.35Q412.51-30.35 408.89-26.65 405.26-22.95 405.26-17L405.26-17Q405.26-10.8 408.86-7.1 412.46-3.4 418.41-3.4L418.41-3.4Q423.21-3.4 426.61-5.95L426.61-5.95ZM450.96-3.65L450.96 0 432.56 0 432.56-33.7 436.61-33.7 436.61-3.65 450.96-3.65ZM475.21-3.55L475.21 0 456.41 0 456.41-33.7 474.96-33.7 474.96-30.15 460.46-30.15 460.46-18.6 473.26-18.6 473.26-15.05 460.46-15.05 460.46-3.55 475.21-3.55ZM500.96-8.95L500.96-8.95Q500.96-4.5 497.91-2.08 494.86 0.35 490.06 0.35L490.06 0.35Q484.75 0.35 481.06-1.8L481.06-1.8 481.06-6.15Q484.71-3.4 489.96-3.4L489.96-3.4Q493.11-3.4 494.91-4.8 496.71-6.2 496.71-8.85L496.71-8.85Q496.71-9.95 496.28-10.83 495.86-11.7 494.88-12.43 493.91-13.15 493.03-13.63 492.16-14.1 490.66-14.8L490.66-14.8Q490.36-14.95 489.75-15.2L489.75-15.2Q487.61-16.15 486.48-16.75 485.36-17.35 483.83-18.53 482.31-19.7 481.61-21.25 480.91-22.8 480.91-24.85L480.91-24.85Q480.91-29.15 483.98-31.58 487.06-34 491.71-34L491.71-34Q496.06-34 499.11-32.45L499.11-32.45 499.11-28.2Q496.06-30.2 491.81-30.2L491.81-30.2Q488.75-30.2 486.96-28.78 485.16-27.35 485.16-25.05L485.16-25.05Q485.16-23.85 485.63-22.9 486.11-21.95 487.31-21.13 488.5-20.3 489.36-19.88 490.21-19.45 492-18.65L492-18.65Q493.71-17.9 494.61-17.48 495.5-17.05 496.93-16.13 498.36-15.2 499.08-14.33 499.81-13.45 500.38-12.03 500.96-10.6 500.96-8.95Z" fill="#61777f" data-fill-palette-color="secondary"/>
                              </g>
                            </svg>
                          </g>
                        </svg>
                      </g>
                    </svg>
                  </g>
                </svg>
              </g>
              <g>
                <svg viewBox="0 0 49.989416093632116 37.93618981426004" height="37.93618981426004" width="49.989416093632116">
                  <g>
                    <svg xmlns="http://www.w3.org/2000/svg" xmlns:xlink="http://www.w3.org/1999/xlink" version="1.1" x="0" y="0" viewBox="3.3114564418792725 33.37550735473633 249.37725830078125 189.24851989746094" enable-background="new 0 0 256 256" xml:space="preserve" height="37.93618981426004" width="49.989416093632116" class="icon-icon-0" data-fill-palette-color="accent" id="icon-0">
                      <path d="M76.928 47.315c0.32 0 0.641-0.027 0.969-0.102 16.625-3.477 35.918-4.941 57.414-4.27 2.672-0.102 4.746-1.957 4.824-4.547 0.082-2.586-1.953-4.746-4.539-4.828-22.219-0.672-42.273 0.836-59.625 4.477-2.531 0.527-4.16 3.008-3.629 5.543C72.807 45.8 74.756 47.315 76.928 47.315z" fill="#d2d6dc" data-fill-palette-color="accent"/>
                      <path d="M176.459 134.854c1.246-12.641-5.07-25.082-15.723-30.973-20.152-11.148-40.918 1.859-49.086 10.293-1.801 1.852-1.754 4.824 0.105 6.625 1.863 1.797 4.828 1.758 6.629-0.109 0.184-0.184 18.832-19.07 37.816-8.605 7.305 4.043 11.801 13.031 10.934 21.855-0.68 6.863-5.168 19.438-27.656 26.609-39.172 12.488-95.477 4.738-118.176-29.582C6.014 107.851 11.28 81.894 34.717 64.839c2.098-1.523 2.559-4.453 1.035-6.551-1.531-2.094-4.461-2.563-6.547-1.023C1.788 77.206-4.529 108.905 13.483 136.14c17.992 27.199 53.262 39.52 87.711 39.512 14.281 0 28.43-2.117 41.133-6.164C162.487 163.054 174.928 150.437 176.459 134.854z" fill="#d2d6dc" data-fill-palette-color="accent"/>
                      <path d="M242.436 116.479c-25.445-38.473-85.496-47.168-128.844-33.348-20.16 6.434-32.598 19.051-34.133 34.629-1.246 12.641 5.07 25.086 15.723 30.977 20.152 11.133 40.918-1.863 49.086-10.293 1.801-1.852 1.754-4.824-0.102-6.629-1.859-1.793-4.824-1.75-6.629 0.109-0.188 0.184-18.844 19.074-37.82 8.609-7.305-4.043-11.801-13.031-10.93-21.855 0.676-6.863 5.168-19.441 27.656-26.609 39.168-12.496 95.488-4.719 118.172 29.582 10.32 15.602 11.465 33.113 3.141 48.055-15.145 27.188-57.859 41.863-117.145 39.969-2.801-0.125-4.75 1.953-4.828 4.547-0.082 2.586 1.957 4.746 4.539 4.828 3.59 0.102 7.078 0.16 10.469 0.16 78.105 0 105.633-27.848 115.156-44.941C256.034 156.163 254.752 135.097 242.436 116.479z" fill="#d2d6dc" data-fill-palette-color="accent"/>
                      <path d="M46.452 54.538l4.004 11.293c0.105 0.301 0.387 0.5 0.707 0.5 0.316 0 0.602-0.199 0.707-0.5l4-11.293 11.293-3.996c0.301-0.113 0.5-0.398 0.5-0.711 0-0.316-0.199-0.602-0.5-0.711l-11.293-4-4-11.293c-0.215-0.602-1.203-0.602-1.414 0L46.452 45.12l-11.289 4c-0.301 0.109-0.504 0.395-0.504 0.711 0 0.313 0.203 0.598 0.504 0.711L46.452 54.538z" fill="#d2d6dc" data-fill-palette-color="accent"/>
                      <path d="M88.698 201.417l-4-11.293c-0.215-0.598-1.203-0.598-1.414 0l-4.004 11.293-11.289 3.992c-0.301 0.109-0.504 0.398-0.504 0.711 0 0.316 0.203 0.602 0.5 0.703l11.293 4.016 4.004 11.285c0.105 0.301 0.387 0.5 0.707 0.5 0.316 0 0.598-0.199 0.707-0.5l4-11.285 11.293-4.016c0.297-0.102 0.5-0.387 0.5-0.703 0-0.313-0.203-0.602-0.504-0.711L88.698 201.417z" fill="#d2d6dc" data-fill-palette-color="accent"/>
                      <path d="M223.448 66.015l3.117 8.797c0.105 0.301 0.391 0.5 0.707 0.5 0.32 0 0.602-0.199 0.707-0.5l3.117-8.797 8.801-3.113c0.301-0.109 0.5-0.395 0.5-0.707 0-0.316-0.199-0.602-0.5-0.711l-8.801-3.113-3.117-8.797c-0.211-0.602-1.199-0.602-1.414 0l-3.117 8.797-8.797 3.113c-0.301 0.109-0.504 0.395-0.504 0.711 0 0.313 0.203 0.598 0.504 0.707L223.448 66.015z" fill="#d2d6dc" data-fill-palette-color="accent"/>
                      <path d="M211.409 148.327c0-3.523-2.855-6.379-6.375-6.379s-6.375 2.855-6.375 6.379c0 3.52 2.855 6.379 6.375 6.379S211.409 151.847 211.409 148.327z" fill="#d2d6dc" data-fill-palette-color="accent"/>
                      <path d="M109.831 62.198c0 3.516 2.855 6.375 6.375 6.375 3.523 0 6.375-2.859 6.375-6.375 0-3.527-2.852-6.379-6.375-6.379C112.686 55.819 109.831 58.671 109.831 62.198z" fill="#d2d6dc" data-fill-palette-color="accent"/>
                      <path d="M62.784 104.476c0-2.902-2.348-5.246-5.25-5.246-2.898 0-5.246 2.344-5.246 5.246s2.348 5.25 5.246 5.25C60.436 109.726 62.784 107.378 62.784 104.476z" fill="#d2d6dc" data-fill-palette-color="accent"/>
                      <path d="M63.909 147.206c2.902 0 5.254-2.359 5.254-5.254 0-2.898-2.352-5.25-5.254-5.25-2.895 0-5.246 2.352-5.246 5.25C58.663 144.847 61.014 147.206 63.909 147.206z" fill="#d2d6dc" data-fill-palette-color="accent"/>
                      <path d="M188.709 104.476c0-2.902-2.352-5.246-5.25-5.246s-5.246 2.344-5.246 5.246 2.348 5.25 5.246 5.25S188.709 107.378 188.709 104.476z" fill="#d2d6dc" data-fill-palette-color="accent"/>
                      <path d="M146.987 185.319c0 2.902 2.352 5.246 5.25 5.246s5.25-2.344 5.25-5.246c0-2.898-2.352-5.25-5.25-5.25S146.987 182.421 146.987 185.319z" fill="#d2d6dc" data-fill-palette-color="accent"/>
                    </svg>
                  </g>
                </svg>
              </g>
            </svg>
          </g>
          <defs/>
        </svg>
        <rect width="395.52" height="33.19659734667184" fill="none" stroke="none" visibility="hidden"/>
      </g>
    </svg>
  </g>
</svg>