<svg class="svg-icon" style="width: 1em;height: 1em;vertical-align: middle;fill: currentColor;overflow: hidden;" viewBox="0 0 1024 1024" version="1.1" xmlns="http://www.w3.org/2000/svg"><path d="M793.6 585.955556c72.533333-72.533333 72.533333-189.155556 0-260.266667-59.733333-59.733333-147.911111-69.688889-219.022222-31.288889-69.688889-38.4-159.288889-27.022222-219.022222 31.288889 0 0 0 1.422222-1.422223 2.844444L224.711111 199.111111h83.911111c8.533333 0 14.222222-5.688889 14.222222-14.222222s-5.688889-14.222222-14.222222-14.222222h-118.044444c-1.422222 0-2.844444 0-4.266667 1.422222-1.422222 0-2.844444 1.422222-4.266667 2.844444 0 0 0 1.422222-1.422222 1.422223-1.422222 1.422222-1.422222 1.422222-1.422222 2.844444v1.422222c0 1.422222-1.422222 2.844444-1.422222 4.266667v119.466667c0 8.533333 5.688889 14.222222 14.222222 14.222222s14.222222-5.688889 14.222222-14.222222v-85.333334l130.844445 130.844445c-49.777778 72.533333-44.088889 172.088889 21.333333 236.088889 35.555556 35.555556 83.911111 54.044444 130.844444 54.044444 29.866667 0 61.155556-7.111111 88.177778-22.755556 21.333333 11.377778 44.088889 18.488889 68.266667 21.333334V696.888889h-92.444445c-8.533333 0-14.222222 5.688889-14.222222 14.222222s5.688889 14.222222 14.222222 14.222222h92.444445v113.777778c0 8.533333 5.688889 14.222222 14.222222 14.222222s14.222222-5.688889 14.222222-14.222222v-113.777778h92.444445c8.533333 0 14.222222-5.688889 14.222222-14.222222s-5.688889-14.222222-14.222222-14.222222h-92.444445v-56.888889c41.244444-2.844444 85.333333-19.911111 119.466667-54.044444z m-416.711111-19.911112c-29.866667-29.866667-45.511111-68.266667-45.511111-110.933333 0-41.244444 15.644444-81.066667 45.511111-110.933333 29.866667-29.866667 68.266667-45.511111 110.933333-45.511111 21.333333 0 41.244444 4.266667 61.155556 12.8-5.688889 4.266667-9.955556 8.533333-15.644445 12.8-72.533333 72.533333-72.533333 189.155556 0 260.266666 4.266667 4.266667 9.955556 8.533333 14.222223 12.8-56.888889 25.6-125.155556 14.222222-170.666667-31.288889zM597.333333 345.6c29.866667 29.866667 45.511111 68.266667 45.511111 110.933333 0 41.244444-15.644444 81.066667-45.511111 110.933334-7.111111 7.111111-14.222222 12.8-22.755555 18.488889-8.533333-5.688889-15.644444-11.377778-22.755556-18.488889-29.866667-29.866667-45.511111-68.266667-45.511111-110.933334 0-41.244444 15.644444-81.066667 45.511111-110.933333 7.111111-7.111111 14.222222-12.8 22.755556-18.488889 8.533333 5.688889 15.644444 11.377778 22.755555 18.488889z m19.911111 240.355556c72.533333-72.533333 72.533333-189.155556 0-260.266667-4.266667-4.266667-9.955556-8.533333-14.222222-12.8 19.911111-8.533333 39.822222-12.8 61.155556-12.8 39.822222 0 79.644444 15.644444 110.933333 45.511111 61.155556 61.155556 61.155556 159.288889 0 220.444444-45.511111 45.511111-113.777778 56.888889-170.666667 32.711112l12.8-12.8z"  /></svg>