<svg class="svg-icon" style="width: 1em;height: 1em;vertical-align: middle;fill: currentColor;overflow: hidden;" viewBox="0 0 1024 1024" version="1.1" xmlns="http://www.w3.org/2000/svg"><path d="M906.676137 379.119479a414.102891 414.102891 0 0 1-515.685515 529.73316C231.369884 1014.608146 94.429243 1054.744273 37.155628 998.681112s-20.163625-195.902522 83.425806-359.950974a413.561372 413.561372 0 0 1 509.983637-522.406725C791.014015 9.612284 928.814715-30.842383 986.311309 25.220777c57.050637 55.426079 21.182956 192.398574-79.635172 353.898702z m-40.86877 134.74271a351.860041 351.860041 0 0 0-6.370813-65.300841c-49.851617 70.397491-130.601681 168.508023-152.899529 192.717115-23.444594 25.483255-166.246384 154.810773-241.772381 218.837451a331.919394 331.919394 0 0 0 50.647969 4.141029 350.394754 350.394754 0 0 0 350.394754-350.394754zM108.349471 925.735295c33.191939 32.49115 111.712218 11.467465 210.459831-47.462562a413.911767 413.911767 0 0 1-167.106443-166.278238c-57.432886 101.295938-76.800159 181.24965-43.353388 213.7408zM515.412613 163.467435a350.394754 350.394754 0 0 0-129.136393 675.943334c47.781103-39.180504 134.073775-109.896536 256.552668-229.986375a2326.238918 2326.238918 0 0 0 192.143741-238.905514 350.171776 350.171776 0 0 0-319.560016-207.051445z m399.704853-65.300841c-33.223793-32.49115-111.839635-11.467465-210.714664 47.462562a415.950427 415.950427 0 0 1 169.845894 162.137209c55.553496-99.384694 73.869585-177.427162 40.86877-209.599771z"  /></svg>