<svg class="svg-icon" style="width: 1em; height: 1em;vertical-align: middle;fill: currentColor;overflow: hidden;" viewBox="0 0 1024 1024" version="1.1" xmlns="http://www.w3.org/2000/svg"><path d="M119.30195 921.741185c-6.817254 0-10.225881-3.408627-13.634508-6.817254l-102.258815-136.345086c-3.408627-6.817254-3.408627-13.634509 0-17.043136 0-6.817254 6.817254-10.225881 13.634509-10.225881 34.086272 0 74.989797 6.817254 122.710577 13.634508 146.570968 23.86039 347.67997 54.538034 477.207802-78.398424 119.30195-119.30195 102.258815-255.647037 81.807052-429.487022-6.817254-68.172543-17.043136-149.979595-17.043136-238.603901 0-6.817254 3.408627-13.634509 10.225882-17.043136 6.817254-3.408627 13.634509 0 17.043135 3.408628l204.51763 204.517629c6.817254 6.817254 6.817254 17.043136 0 23.86039s-17.043136 6.817254-23.86039 0L715.811703 59.358515c3.408627 68.172543 10.225881 132.936459 17.043135 194.291748 20.451763 173.839985 40.903526 323.81958-92.032933 456.756039C501.068192 853.568642 289.733308 822.890998 136.345086 799.030608c-30.677644-3.408627-57.946662-10.225881-81.807052-10.225882L136.345086 894.472168c6.817254 6.817254 3.408627 17.043136-3.408627 23.86039-6.817254 3.408627-10.225881 3.408627-13.634509 3.408627z" fill="" /><path d="M221.560765 1024c-10.225881 0-17.043136-6.817254-17.043136-17.043136 0-27.269017-3.408627-57.946662-6.817254-98.850187-13.634509-149.979595-34.086272-378.357614 112.484696-528.337209 132.936459-132.936459 282.916054-112.484696 456.756039-92.032934 74.989797 10.225881 153.388222 20.451763 238.603901 20.451763 10.225881 0 17.043136 6.817254 17.043136 17.043136s-6.817254 17.043136-17.043136 17.043136c-88.624306 0-170.431358-10.225881-242.012528-20.451763-170.431358-20.451763-306.776444-37.494899-429.487022 81.807052-136.345086 136.345086-119.30195 347.67997-105.667442 501.068192 3.408627 37.494899 6.817254 71.58117 6.817255 102.258814 3.408627 10.225881-3.408627 17.043136-13.634509 17.043136z" fill="" /><path d="M528.337209 785.396099c-3.408627 0-10.225881 0-13.634509-3.408627l-204.517629-204.517629c-6.817254-6.817254-6.817254-17.043136 0-23.86039 6.817254-6.817254 17.043136-6.817254 23.86039 0l204.51763 204.517629c6.817254 6.817254 6.817254 17.043136 0 23.86039 0 3.408627-6.817254 3.408627-10.225882 3.408627zM630.596024 717.223556c-3.408627 0-10.225881 0-13.634509-3.408627l-238.603901-238.603901c-6.817254-6.817254-6.817254-17.043136 0-23.86039s17.043136-6.817254 23.86039 0l238.603901 238.603901c6.817254 6.817254 6.817254 17.043136 0 23.86039 0 3.408627-6.817254 3.408627-10.225881 3.408627zM698.768567 614.964741c-3.408627 0-10.225881 0-13.634509-3.408627l-204.517629-204.517629c-6.817254-6.817254-6.817254-17.043136 0-23.86039s17.043136-6.817254 23.86039 0l204.517629 204.517629c6.817254 6.817254 6.817254 17.043136 0 23.86039 0 3.408627-6.817254 3.408627-10.225881 3.408627zM732.854838 478.619655c-3.408627 0-10.225881 0-13.634508-3.408627l-102.258815-102.258815c-6.817254-6.817254-6.817254-17.043136 0-23.86039s17.043136-6.817254 23.86039 0l102.258815 102.258815c6.817254 6.817254 6.817254 17.043136 0 23.86039 0 3.408627-6.817254 3.408627-10.225882 3.408627zM391.992123 819.482371c-3.408627 0-10.225881 0-13.634509-3.408627l-102.258814-102.258815c-6.817254-6.817254-6.817254-17.043136 0-23.86039 6.817254-6.817254 17.043136-6.817254 23.86039 0l102.258814 102.258814c6.817254 6.817254 6.817254 17.043136 0 23.860391 0 3.408627-6.817254 3.408627-10.225881 3.408627zM766.94111 240.015754c-3.408627 0-10.225881 0-13.634509-3.408627l-51.129407-51.129407c-6.817254-6.817254-6.817254-17.043136 0-23.86039s17.043136-6.817254 23.86039 0l51.129407 51.129407c6.817254 6.817254 6.817254 17.043136 0 23.86039 0 3.408627-6.817254 3.408627-10.225881 3.408627z" fill="" /></svg>